# Blender 4.0.2
# www.blender.org
mtllib testgen.mtl
o Cube
v -0.380508 -0.158659 0.924667
v -0.380508 0.459597 0.924667
v -0.380508 -0.158659 -0.364711
v -0.380508 0.459597 -0.364711
v 0.534906 -0.158659 0.924667
v 0.534906 0.459597 0.924667
v 0.534906 -0.158659 -0.364711
v 0.534906 0.459597 -0.364711
v 0.564346 0.460488 0.922014
v -0.384006 0.453323 0.922014
v 0.564346 0.460488 0.814314
v -0.384006 0.453323 0.814314
v 0.563648 0.552857 0.922014
v -0.384704 0.545693 0.922014
v 0.563648 0.552857 0.814314
v -0.384704 0.545693 0.814314
v 0.537074 -0.170946 0.923045
v 0.537074 0.555443 0.923045
v 0.537074 -0.170946 0.815345
v 0.537074 0.555443 0.815345
v 0.629444 -0.170946 0.923045
v 0.629444 0.555443 0.923045
v 0.629444 -0.170946 0.815345
v 0.629444 0.555443 0.815345
v -0.481226 -0.158817 0.923045
v -0.481226 0.543314 0.923045
v -0.481226 -0.158817 0.815345
v -0.481226 0.543314 0.815345
v -0.388856 -0.158817 0.923045
v -0.388856 0.543314 0.923045
v -0.388856 -0.158817 0.815345
v -0.388856 0.543314 0.815345
v 0.564346 0.460488 -0.260087
v -0.384006 0.453323 -0.260087
v 0.564346 0.460488 -0.367787
v -0.384006 0.453323 -0.367787
v 0.563648 0.552857 -0.260087
v -0.384704 0.545693 -0.260087
v 0.563648 0.552857 -0.367787
v -0.384704 0.545693 -0.367787
v 0.537074 -0.170946 -0.259055
v 0.537074 0.555443 -0.259055
v 0.537074 -0.170946 -0.366756
v 0.537074 0.555443 -0.366756
v 0.629444 -0.170946 -0.259055
v 0.629444 0.555443 -0.259055
v 0.629444 -0.170946 -0.366756
v 0.629444 0.555443 -0.366756
v -0.481226 -0.158817 -0.259055
v -0.481226 0.543314 -0.259055
v -0.481226 -0.158817 -0.366756
v -0.481226 0.543314 -0.366756
v -0.388856 -0.158817 -0.259055
v -0.388856 0.543314 -0.259055
v -0.388856 -0.158817 -0.366756
v -0.388856 0.543314 -0.366756
v -0.468046 -0.165409 -0.291158
v -0.468046 -0.166301 0.826446
v -0.468046 -0.078267 -0.291089
v -0.468046 -0.079159 0.826516
v -0.379846 -0.165409 -0.291158
v -0.379846 -0.166301 0.826446
v -0.379846 -0.078267 -0.291089
v -0.379846 -0.079159 0.826516
v -0.468046 0.451261 -0.291158
v -0.468046 0.450369 0.826446
v -0.468046 0.538404 -0.291089
v -0.468046 0.537512 0.826516
v -0.379846 0.451261 -0.291158
v -0.379846 0.450369 0.826446
v -0.379846 0.538404 -0.291089
v -0.379846 0.537512 0.826516
v 0.541265 0.451261 -0.291158
v 0.541265 0.450369 0.826446
v 0.541265 0.538404 -0.291089
v 0.541265 0.537512 0.826516
v 0.629465 0.451261 -0.291158
v 0.629465 0.450369 0.826446
v 0.629465 0.538404 -0.291089
v 0.629465 0.537512 0.826516
v 0.538734 -0.165409 -0.291158
v 0.538734 -0.166301 0.826446
v 0.538734 -0.078267 -0.291089
v 0.538734 -0.079159 0.826516
v 0.626934 -0.165409 -0.291158
v 0.626934 -0.166301 0.826446
v 0.626934 -0.078267 -0.291089
v 0.626934 -0.079159 0.826516
vn -1.0000 -0.0000 -0.0000
vn -0.0000 -0.0000 -1.0000
vn 1.0000 -0.0000 -0.0000
vn -0.0000 -0.0000 1.0000
vn -0.0000 -1.0000 -0.0000
vn -0.0000 1.0000 -0.0000
vn 0.0076 -1.0000 -0.0000
vn -0.0076 1.0000 -0.0000
vn 1.0000 0.0076 -0.0000
vn -1.0000 -0.0076 -0.0000
vn -0.0000 1.0000 0.0008
vn -0.0000 -1.0000 -0.0008
vn -0.0000 0.0008 -1.0000
vn -0.0000 -0.0008 1.0000
vt 0.375000 0.000000
vt 0.625000 0.000000
vt 0.625000 0.250000
vt 0.375000 0.250000
vt 0.625000 0.500000
vt 0.375000 0.500000
vt 0.625000 0.750000
vt 0.375000 0.750000
vt 0.625000 1.000000
vt 0.375000 1.000000
vt 0.125000 0.500000
vt 0.125000 0.750000
vt 0.875000 0.500000
vt 0.875000 0.750000
s 0
f 1/1/1 2/2/1 4/3/1 3/4/1
f 3/4/2 4/3/2 8/5/2 7/6/2
f 7/6/3 8/5/3 6/7/3 5/8/3
f 5/8/4 6/7/4 2/9/4 1/10/4
f 3/11/5 7/6/5 5/8/5 1/12/5
f 8/5/6 4/13/6 2/14/6 6/7/6
f 9/1/7 10/2/7 12/3/7 11/4/7
f 11/4/2 12/3/2 16/5/2 15/6/2
f 15/6/8 16/5/8 14/7/8 13/8/8
f 13/8/4 14/7/4 10/9/4 9/10/4
f 11/11/9 15/6/9 13/8/9 9/12/9
f 16/5/10 12/13/10 10/14/10 14/7/10
f 17/1/1 18/2/1 20/3/1 19/4/1
f 19/4/2 20/3/2 24/5/2 23/6/2
f 23/6/3 24/5/3 22/7/3 21/8/3
f 21/8/4 22/7/4 18/9/4 17/10/4
f 19/11/5 23/6/5 21/8/5 17/12/5
f 24/5/6 20/13/6 18/14/6 22/7/6
f 25/1/1 26/2/1 28/3/1 27/4/1
f 27/4/2 28/3/2 32/5/2 31/6/2
f 31/6/3 32/5/3 30/7/3 29/8/3
f 29/8/4 30/7/4 26/9/4 25/10/4
f 27/11/5 31/6/5 29/8/5 25/12/5
f 32/5/6 28/13/6 26/14/6 30/7/6
f 33/1/7 34/2/7 36/3/7 35/4/7
f 35/4/2 36/3/2 40/5/2 39/6/2
f 39/6/8 40/5/8 38/7/8 37/8/8
f 37/8/4 38/7/4 34/9/4 33/10/4
f 35/11/9 39/6/9 37/8/9 33/12/9
f 40/5/10 36/13/10 34/14/10 38/7/10
f 41/1/1 42/2/1 44/3/1 43/4/1
f 43/4/2 44/3/2 48/5/2 47/6/2
f 47/6/3 48/5/3 46/7/3 45/8/3
f 45/8/4 46/7/4 42/9/4 41/10/4
f 43/11/5 47/6/5 45/8/5 41/12/5
f 48/5/6 44/13/6 42/14/6 46/7/6
f 49/1/1 50/2/1 52/3/1 51/4/1
f 51/4/2 52/3/2 56/5/2 55/6/2
f 55/6/3 56/5/3 54/7/3 53/8/3
f 53/8/4 54/7/4 50/9/4 49/10/4
f 51/11/5 55/6/5 53/8/5 49/12/5
f 56/5/6 52/13/6 50/14/6 54/7/6
f 57/1/1 58/2/1 60/3/1 59/4/1
f 59/4/11 60/3/11 64/5/11 63/6/11
f 63/6/3 64/5/3 62/7/3 61/8/3
f 61/8/12 62/7/12 58/9/12 57/10/12
f 59/11/13 63/6/13 61/8/13 57/12/13
f 64/5/14 60/13/14 58/14/14 62/7/14
f 65/1/1 66/2/1 68/3/1 67/4/1
f 67/4/11 68/3/11 72/5/11 71/6/11
f 71/6/3 72/5/3 70/7/3 69/8/3
f 69/8/12 70/7/12 66/9/12 65/10/12
f 67/11/13 71/6/13 69/8/13 65/12/13
f 72/5/14 68/13/14 66/14/14 70/7/14
f 73/1/1 74/2/1 76/3/1 75/4/1
f 75/4/11 76/3/11 80/5/11 79/6/11
f 79/6/3 80/5/3 78/7/3 77/8/3
f 77/8/12 78/7/12 74/9/12 73/10/12
f 75/11/13 79/6/13 77/8/13 73/12/13
f 80/5/14 76/13/14 74/14/14 78/7/14
f 81/1/1 82/2/1 84/3/1 83/4/1
f 83/4/11 84/3/11 88/5/11 87/6/11
f 87/6/3 88/5/3 86/7/3 85/8/3
f 85/8/12 86/7/12 82/9/12 81/10/12
f 83/11/13 87/6/13 85/8/13 81/12/13
f 88/5/14 84/13/14 82/14/14 86/7/14
o Cylinder.001
v 0.930960 -0.013653 -0.129990
v 0.930960 0.089797 -0.129990
v 0.930771 -0.013653 -0.125789
v 0.930771 0.089797 -0.125789
v 0.929578 -0.013653 -0.121672
v 0.929578 0.089797 -0.121672
v 0.927425 -0.013653 -0.117798
v 0.927425 0.089797 -0.117798
v 0.924397 -0.013653 -0.114316
v 0.924397 0.089797 -0.114316
v 0.920609 -0.013653 -0.111358
v 0.920609 0.089797 -0.111358
v 0.916208 -0.013653 -0.109040
v 0.916208 0.089797 -0.109040
v 0.911361 -0.013653 -0.107450
v 0.911361 0.089797 -0.107450
v 0.906256 -0.013653 -0.106650
v 0.906256 0.089797 -0.106650
v 0.901088 -0.013653 -0.106669
v 0.901088 0.089797 -0.106669
v 0.896057 -0.013653 -0.107507
v 0.896057 0.089797 -0.107507
v 0.891355 -0.013653 -0.109132
v 0.891355 0.089797 -0.109132
v 0.887164 -0.013653 -0.111482
v 0.887164 0.089797 -0.111482
v 0.883644 -0.013653 -0.114467
v 0.883644 0.089797 -0.114467
v 0.880930 -0.013653 -0.117970
v 0.880930 0.089797 -0.117970
v 0.879127 -0.013653 -0.121859
v 0.879127 0.089797 -0.121859
v 0.878304 -0.013653 -0.125983
v 0.878304 0.089797 -0.125983
v 0.878494 -0.013653 -0.130184
v 0.878494 0.089797 -0.130184
v 0.879687 -0.013653 -0.134301
v 0.879687 0.089797 -0.134301
v 0.881840 -0.013653 -0.138175
v 0.881840 0.089797 -0.138175
v 0.884868 -0.013653 -0.141657
v 0.884868 0.089797 -0.141657
v 0.888655 -0.013653 -0.144614
v 0.888655 0.089797 -0.144614
v 0.893057 -0.013653 -0.146932
v 0.893057 0.089797 -0.146932
v 0.897904 -0.013653 -0.148522
v 0.897904 0.089797 -0.148522
v 0.903009 -0.013653 -0.149323
v 0.903009 0.089797 -0.149323
v 0.908176 -0.013653 -0.149304
v 0.908176 0.089797 -0.149304
v 0.913208 -0.013653 -0.148466
v 0.913208 0.089797 -0.148466
v 0.917909 -0.013653 -0.146840
v 0.917909 0.089797 -0.146840
v 0.922101 -0.013653 -0.144490
v 0.922101 0.089797 -0.144490
v 0.925621 -0.013653 -0.141506
v 0.925621 0.089797 -0.141506
v 0.928335 -0.013653 -0.138002
v 0.928335 0.089797 -0.138002
v 0.930138 -0.013653 -0.134114
v 0.930138 0.089797 -0.134114
v 0.904615 0.002396 -0.100019
v 0.203046 -0.002396 -0.100019
v 0.904650 -0.002802 -0.100525
v 0.203081 -0.007595 -0.100525
v 0.904684 -0.007801 -0.102025
v 0.203115 -0.012593 -0.102025
v 0.904716 -0.012407 -0.104460
v 0.203147 -0.017200 -0.104460
v 0.904743 -0.016445 -0.107737
v 0.203174 -0.021238 -0.107737
v 0.904766 -0.019759 -0.111731
v 0.203197 -0.024552 -0.111731
v 0.904783 -0.022221 -0.116287
v 0.203214 -0.027014 -0.116287
v 0.904793 -0.023738 -0.121230
v 0.203224 -0.028530 -0.121230
v 0.904797 -0.024250 -0.126371
v 0.203228 -0.029042 -0.126371
v 0.904793 -0.023738 -0.131512
v 0.203224 -0.028530 -0.131512
v 0.904783 -0.022221 -0.136456
v 0.203214 -0.027014 -0.136456
v 0.904766 -0.019759 -0.141012
v 0.203197 -0.024552 -0.141012
v 0.904743 -0.016445 -0.145005
v 0.203174 -0.021238 -0.145005
v 0.904716 -0.012407 -0.148282
v 0.203147 -0.017200 -0.148282
v 0.904684 -0.007801 -0.150717
v 0.203115 -0.012593 -0.150717
v 0.904650 -0.002802 -0.152217
v 0.203081 -0.007595 -0.152217
v 0.904615 0.002396 -0.152723
v 0.203046 -0.002396 -0.152723
v 0.904579 0.007595 -0.152217
v 0.203010 0.002802 -0.152217
v 0.904545 0.012593 -0.150717
v 0.202976 0.007801 -0.150717
v 0.904513 0.017200 -0.148282
v 0.202944 0.012407 -0.148282
v 0.904486 0.021238 -0.145005
v 0.202917 0.016445 -0.145005
v 0.904463 0.024552 -0.141012
v 0.202894 0.019759 -0.141012
v 0.904446 0.027014 -0.136456
v 0.202877 0.022221 -0.136456
v 0.904436 0.028530 -0.131512
v 0.202867 0.023738 -0.131512
v 0.904432 0.029042 -0.126371
v 0.202864 0.024250 -0.126371
v 0.904436 0.028530 -0.121230
v 0.202867 0.023738 -0.121230
v 0.904446 0.027014 -0.116287
v 0.202877 0.022221 -0.116287
v 0.904463 0.024552 -0.111731
v 0.202894 0.019759 -0.111731
v 0.904486 0.021238 -0.107737
v 0.202917 0.016445 -0.107737
v 0.904513 0.017200 -0.104460
v 0.202944 0.012407 -0.104460
v 0.904545 0.012593 -0.102025
v 0.202976 0.007801 -0.102025
v 0.904579 0.007595 -0.100525
v 0.203010 0.002802 -0.100525
v 0.883800 0.077274 -0.129990
v 0.987016 0.084231 -0.129990
v 0.883788 0.077462 -0.125789
v 0.987003 0.084420 -0.125789
v 0.883707 0.078653 -0.121672
v 0.986923 0.085611 -0.121672
v 0.883562 0.080801 -0.117798
v 0.986778 0.087758 -0.117798
v 0.883359 0.083822 -0.114316
v 0.986575 0.090779 -0.114316
v 0.883104 0.087601 -0.111358
v 0.986320 0.094559 -0.111358
v 0.882808 0.091993 -0.109040
v 0.986024 0.098950 -0.109040
v 0.882482 0.096828 -0.107450
v 0.985698 0.103786 -0.107450
v 0.882139 0.101922 -0.106650
v 0.985354 0.108879 -0.106650
v 0.881791 0.107078 -0.106669
v 0.985007 0.114035 -0.106669
v 0.881453 0.112098 -0.107507
v 0.984669 0.119055 -0.107507
v 0.881137 0.116789 -0.109132
v 0.984352 0.123746 -0.109132
v 0.880855 0.120971 -0.111482
v 0.984070 0.127928 -0.111482
v 0.880618 0.124483 -0.114467
v 0.983834 0.131441 -0.114467
v 0.880435 0.127191 -0.117970
v 0.983651 0.134148 -0.117970
v 0.880314 0.128989 -0.121859
v 0.983530 0.135947 -0.121859
v 0.880259 0.129810 -0.125983
v 0.983475 0.136768 -0.125983
v 0.880272 0.129622 -0.130184
v 0.983487 0.136579 -0.130184
v 0.880352 0.128431 -0.134301
v 0.983568 0.135388 -0.134301
v 0.880497 0.126283 -0.138175
v 0.983712 0.133241 -0.138175
v 0.880700 0.123262 -0.141657
v 0.983916 0.130219 -0.141657
v 0.880955 0.119483 -0.144614
v 0.984171 0.126440 -0.144614
v 0.881251 0.115091 -0.146932
v 0.984467 0.122048 -0.146932
v 0.881577 0.110255 -0.148522
v 0.984793 0.117213 -0.148522
v 0.881920 0.105162 -0.149323
v 0.985136 0.112119 -0.149323
v 0.882268 0.100006 -0.149304
v 0.985484 0.106963 -0.149304
v 0.882606 0.094986 -0.148466
v 0.985822 0.101944 -0.148466
v 0.882922 0.090295 -0.146840
v 0.986138 0.097252 -0.146840
v 0.883204 0.086113 -0.144490
v 0.986420 0.093070 -0.144490
v 0.883441 0.082601 -0.141506
v 0.986657 0.089558 -0.141506
v 0.883624 0.079893 -0.138002
v 0.986839 0.086851 -0.138002
v 0.883745 0.078094 -0.134114
v 0.986961 0.085052 -0.134114
vn 0.9990 -0.0000 0.0450
vn 0.9604 -0.0000 0.2785
vn 0.8742 -0.0000 0.4857
vn 0.7546 -0.0000 0.6562
vn 0.6154 -0.0000 0.7882
vn 0.4660 -0.0000 0.8848
vn 0.3117 -0.0000 0.9502
vn 0.1550 -0.0000 0.9879
vn -0.0037 -0.0000 1.0000
vn -0.1644 -0.0000 0.9864
vn -0.3267 -0.0000 0.9451
vn -0.4890 -0.0000 0.8723
vn -0.6466 -0.0000 0.7628
vn -0.7906 -0.0000 0.6123
vn -0.9072 -0.0000 0.4206
vn -0.9807 -0.0000 0.1956
vn -0.9990 -0.0000 -0.0450
vn -0.9604 -0.0000 -0.2785
vn -0.8742 -0.0000 -0.4857
vn -0.7546 -0.0000 -0.6562
vn -0.6154 -0.0000 -0.7882
vn -0.4660 -0.0000 -0.8848
vn -0.3117 -0.0000 -0.9502
vn -0.1550 -0.0000 -0.9879
vn 0.0037 -0.0000 -1.0000
vn 0.1644 -0.0000 -0.9864
vn 0.3267 -0.0000 -0.9451
vn 0.4890 -0.0000 -0.8723
vn 0.6466 -0.0000 -0.7628
vn 0.7906 -0.0000 -0.6123
vn -0.0000 1.0000 -0.0000
vn 0.9072 -0.0000 -0.4206
vn 0.9807 -0.0000 -0.1956
vn -0.0000 -1.0000 -0.0000
vn 0.0007 -0.0969 0.9953
vn 0.0020 -0.2873 0.9578
vn 0.0032 -0.4673 0.8841
vn 0.0043 -0.6302 0.7765
vn 0.0053 -0.7695 0.6386
vn 0.0060 -0.8797 0.4755
vn 0.0065 -0.9560 0.2933
vn 0.0068 -0.9951 0.0991
vn 0.0068 -0.9951 -0.0991
vn 0.0065 -0.9560 -0.2933
vn 0.0060 -0.8797 -0.4755
vn 0.0053 -0.7695 -0.6386
vn 0.0043 -0.6302 -0.7765
vn 0.0032 -0.4673 -0.8841
vn 0.0020 -0.2873 -0.9578
vn 0.0007 -0.0969 -0.9953
vn -0.0007 0.0969 -0.9953
vn -0.0020 0.2873 -0.9578
vn -0.0032 0.4673 -0.8841
vn -0.0043 0.6302 -0.7765
vn -0.0053 0.7695 -0.6386
vn -0.0060 0.8797 -0.4755
vn -0.0065 0.9560 -0.2933
vn -0.0068 0.9951 -0.0991
vn -0.0068 0.9951 0.0991
vn -0.0065 0.9560 0.2933
vn -0.0060 0.8797 0.4755
vn -0.0053 0.7695 0.6386
vn -0.0043 0.6302 0.7765
vn -0.0032 0.4673 0.8841
vn -1.0000 -0.0068 -0.0000
vn -0.0020 0.2873 0.9578
vn -0.0007 0.0969 0.9953
vn 1.0000 0.0068 -0.0000
vn 0.0672 -0.9967 0.0450
vn 0.0646 -0.9583 0.2785
vn 0.0588 -0.8722 0.4857
vn 0.0508 -0.7529 0.6562
vn 0.0414 -0.6140 0.7882
vn 0.0313 -0.4649 0.8848
vn 0.0210 -0.3110 0.9502
vn 0.0104 -0.1546 0.9879
vn -0.0002 0.0037 1.0000
vn -0.0111 0.1640 0.9864
vn -0.0220 0.3260 0.9451
vn -0.0329 0.4879 0.8723
vn -0.0435 0.6452 0.7628
vn -0.0532 0.7888 0.6123
vn -0.0610 0.9052 0.4206
vn -0.0660 0.9785 0.1956
vn -0.0672 0.9967 -0.0450
vn -0.0646 0.9583 -0.2785
vn -0.0588 0.8722 -0.4857
vn -0.0508 0.7529 -0.6562
vn -0.0414 0.6140 -0.7882
vn -0.0313 0.4649 -0.8848
vn -0.0210 0.3110 -0.9502
vn -0.0104 0.1546 -0.9879
vn 0.0002 -0.0037 -1.0000
vn 0.0111 -0.1640 -0.9864
vn 0.0220 -0.3260 -0.9451
vn 0.0329 -0.4879 -0.8723
vn 0.0435 -0.6452 -0.7628
vn 0.0532 -0.7888 -0.6123
vn 0.9977 0.0673 -0.0000
vn 0.0610 -0.9052 -0.4206
vn 0.0660 -0.9785 -0.1956
vn -0.9977 -0.0673 -0.0000
vt 1.000000 0.500000
vt 1.000000 1.000000
vt 0.968750 1.000000
vt 0.968750 0.500000
vt 0.937500 1.000000
vt 0.937500 0.500000
vt 0.906250 1.000000
vt 0.906250 0.500000
vt 0.875000 1.000000
vt 0.875000 0.500000
vt 0.843750 1.000000
vt 0.843750 0.500000
vt 0.812500 1.000000
vt 0.812500 0.500000
vt 0.781250 1.000000
vt 0.781250 0.500000
vt 0.750000 1.000000
vt 0.750000 0.500000
vt 0.718750 1.000000
vt 0.718750 0.500000
vt 0.687500 1.000000
vt 0.687500 0.500000
vt 0.656250 1.000000
vt 0.656250 0.500000
vt 0.625000 1.000000
vt 0.625000 0.500000
vt 0.593750 1.000000
vt 0.593750 0.500000
vt 0.562500 1.000000
vt 0.562500 0.500000
vt 0.531250 1.000000
vt 0.531250 0.500000
vt 0.500000 1.000000
vt 0.500000 0.500000
vt 0.468750 1.000000
vt 0.468750 0.500000
vt 0.437500 1.000000
vt 0.437500 0.500000
vt 0.406250 1.000000
vt 0.406250 0.500000
vt 0.375000 1.000000
vt 0.375000 0.500000
vt 0.343750 1.000000
vt 0.343750 0.500000
vt 0.312500 1.000000
vt 0.312500 0.500000
vt 0.281250 1.000000
vt 0.281250 0.500000
vt 0.250000 1.000000
vt 0.250000 0.500000
vt 0.218750 1.000000
vt 0.218750 0.500000
vt 0.187500 1.000000
vt 0.187500 0.500000
vt 0.156250 1.000000
vt 0.156250 0.500000
vt 0.125000 1.000000
vt 0.125000 0.500000
vt 0.093750 1.000000
vt 0.093750 0.500000
vt 0.062500 1.000000
vt 0.062500 0.500000
vt 0.296822 0.485388
vt 0.250000 0.490000
vt 0.203178 0.485388
vt 0.158156 0.471731
vt 0.116663 0.449553
vt 0.080294 0.419706
vt 0.050447 0.383337
vt 0.028269 0.341844
vt 0.014612 0.296822
vt 0.010000 0.250000
vt 0.014612 0.203178
vt 0.028269 0.158156
vt 0.050447 0.116663
vt 0.080294 0.080294
vt 0.116663 0.050447
vt 0.158156 0.028269
vt 0.203178 0.014612
vt 0.250000 0.010000
vt 0.296822 0.014612
vt 0.341844 0.028269
vt 0.383337 0.050447
vt 0.419706 0.080294
vt 0.449553 0.116663
vt 0.471731 0.158156
vt 0.485388 0.203178
vt 0.490000 0.250000
vt 0.485388 0.296822
vt 0.471731 0.341844
vt 0.449553 0.383337
vt 0.419706 0.419706
vt 0.383337 0.449553
vt 0.341844 0.471731
vt 0.031250 1.000000
vt 0.031250 0.500000
vt 0.000000 1.000000
vt 0.000000 0.500000
vt 0.750000 0.490000
vt 0.796822 0.485388
vt 0.841844 0.471731
vt 0.883337 0.449553
vt 0.919706 0.419706
vt 0.949553 0.383337
vt 0.971731 0.341844
vt 0.985388 0.296822
vt 0.990000 0.250000
vt 0.985388 0.203178
vt 0.971731 0.158156
vt 0.949553 0.116663
vt 0.919706 0.080294
vt 0.883337 0.050447
vt 0.841844 0.028269
vt 0.796822 0.014612
vt 0.750000 0.010000
vt 0.703178 0.014612
vt 0.658156 0.028269
vt 0.616663 0.050447
vt 0.580294 0.080294
vt 0.550447 0.116663
vt 0.528269 0.158156
vt 0.514612 0.203178
vt 0.510000 0.250000
vt 0.514612 0.296822
vt 0.528269 0.341844
vt 0.550447 0.383337
vt 0.580294 0.419706
vt 0.616663 0.449553
vt 0.658156 0.471731
vt 0.703178 0.485388
s 0
f 89/15/15 90/16/15 92/17/15 91/18/15
f 91/18/16 92/17/16 94/19/16 93/20/16
f 93/20/17 94/19/17 96/21/17 95/22/17
f 95/22/18 96/21/18 98/23/18 97/24/18
f 97/24/19 98/23/19 100/25/19 99/26/19
f 99/26/20 100/25/20 102/27/20 101/28/20
f 101/28/21 102/27/21 104/29/21 103/30/21
f 103/30/22 104/29/22 106/31/22 105/32/22
f 105/32/23 106/31/23 108/33/23 107/34/23
f 107/34/24 108/33/24 110/35/24 109/36/24
f 109/36/25 110/35/25 112/37/25 111/38/25
f 111/38/26 112/37/26 114/39/26 113/40/26
f 113/40/27 114/39/27 116/41/27 115/42/27
f 115/42/28 116/41/28 118/43/28 117/44/28
f 117/44/29 118/43/29 120/45/29 119/46/29
f 119/46/30 120/45/30 122/47/30 121/48/30
f 121/48/31 122/47/31 124/49/31 123/50/31
f 123/50/32 124/49/32 126/51/32 125/52/32
f 125/52/33 126/51/33 128/53/33 127/54/33
f 127/54/34 128/53/34 130/55/34 129/56/34
f 129/56/35 130/55/35 132/57/35 131/58/35
f 131/58/36 132/57/36 134/59/36 133/60/36
f 133/60/37 134/59/37 136/61/37 135/62/37
f 135/62/38 136/61/38 138/63/38 137/64/38
f 137/64/39 138/63/39 140/65/39 139/66/39
f 139/66/40 140/65/40 142/67/40 141/68/40
f 141/68/41 142/67/41 144/69/41 143/70/41
f 143/70/42 144/69/42 146/71/42 145/72/42
f 145/72/43 146/71/43 148/73/43 147/74/43
f 147/74/44 148/73/44 150/75/44 149/76/44
f 92/77/45 90/78/45 152/79/45 150/80/45 148/81/45 146/82/45 144/83/45 142/84/45 140/85/45 138/86/45 136/87/45 134/88/45 132/89/45 130/90/45 128/91/45 126/92/45 124/93/45 122/94/45 120/95/45 118/96/45 116/97/45 114/98/45 112/99/45 110/100/45 108/101/45 106/102/45 104/103/45 102/104/45 100/105/45 98/106/45 96/107/45 94/108/45
f 149/76/46 150/75/46 152/109/46 151/110/46
f 151/110/47 152/109/47 90/111/47 89/112/47
f 89/113/48 91/114/48 93/115/48 95/116/48 97/117/48 99/118/48 101/119/48 103/120/48 105/121/48 107/122/48 109/123/48 111/124/48 113/125/48 115/126/48 117/127/48 119/128/48 121/129/48 123/130/48 125/131/48 127/132/48 129/133/48 131/134/48 133/135/48 135/136/48 137/137/48 139/138/48 141/139/48 143/140/48 145/141/48 147/142/48 149/143/48 151/144/48
f 153/15/49 154/16/49 156/17/49 155/18/49
f 155/18/50 156/17/50 158/19/50 157/20/50
f 157/20/51 158/19/51 160/21/51 159/22/51
f 159/22/52 160/21/52 162/23/52 161/24/52
f 161/24/53 162/23/53 164/25/53 163/26/53
f 163/26/54 164/25/54 166/27/54 165/28/54
f 165/28/55 166/27/55 168/29/55 167/30/55
f 167/30/56 168/29/56 170/31/56 169/32/56
f 169/32/57 170/31/57 172/33/57 171/34/57
f 171/34/58 172/33/58 174/35/58 173/36/58
f 173/36/59 174/35/59 176/37/59 175/38/59
f 175/38/60 176/37/60 178/39/60 177/40/60
f 177/40/61 178/39/61 180/41/61 179/42/61
f 179/42/62 180/41/62 182/43/62 181/44/62
f 181/44/63 182/43/63 184/45/63 183/46/63
f 183/46/64 184/45/64 186/47/64 185/48/64
f 185/48/65 186/47/65 188/49/65 187/50/65
f 187/50/66 188/49/66 190/51/66 189/52/66
f 189/52/67 190/51/67 192/53/67 191/54/67
f 191/54/68 192/53/68 194/55/68 193/56/68
f 193/56/69 194/55/69 196/57/69 195/58/69
f 195/58/70 196/57/70 198/59/70 197/60/70
f 197/60/71 198/59/71 200/61/71 199/62/71
f 199/62/72 200/61/72 202/63/72 201/64/72
f 201/64/73 202/63/73 204/65/73 203/66/73
f 203/66/74 204/65/74 206/67/74 205/68/74
f 205/68/75 206/67/75 208/69/75 207/70/75
f 207/70/76 208/69/76 210/71/76 209/72/76
f 209/72/77 210/71/77 212/73/77 211/74/77
f 211/74/78 212/73/78 214/75/78 213/76/78
f 156/77/79 154/78/79 216/79/79 214/80/79 212/81/79 210/82/79 208/83/79 206/84/79 204/85/79 202/86/79 200/87/79 198/88/79 196/89/79 194/90/79 192/91/79 190/92/79 188/93/79 186/94/79 184/95/79 182/96/79 180/97/79 178/98/79 176/99/79 174/100/79 172/101/79 170/102/79 168/103/79 166/104/79 164/105/79 162/106/79 160/107/79 158/108/79
f 213/76/80 214/75/80 216/109/80 215/110/80
f 215/110/81 216/109/81 154/111/81 153/112/81
f 153/113/82 155/114/82 157/115/82 159/116/82 161/117/82 163/118/82 165/119/82 167/120/82 169/121/82 171/122/82 173/123/82 175/124/82 177/125/82 179/126/82 181/127/82 183/128/82 185/129/82 187/130/82 189/131/82 191/132/82 193/133/82 195/134/82 197/135/82 199/136/82 201/137/82 203/138/82 205/139/82 207/140/82 209/141/82 211/142/82 213/143/82 215/144/82
f 217/15/83 218/16/83 220/17/83 219/18/83
f 219/18/84 220/17/84 222/19/84 221/20/84
f 221/20/85 222/19/85 224/21/85 223/22/85
f 223/22/86 224/21/86 226/23/86 225/24/86
f 225/24/87 226/23/87 228/25/87 227/26/87
f 227/26/88 228/25/88 230/27/88 229/28/88
f 229/28/89 230/27/89 232/29/89 231/30/89
f 231/30/90 232/29/90 234/31/90 233/32/90
f 233/32/91 234/31/91 236/33/91 235/34/91
f 235/34/92 236/33/92 238/35/92 237/36/92
f 237/36/93 238/35/93 240/37/93 239/38/93
f 239/38/94 240/37/94 242/39/94 241/40/94
f 241/40/95 242/39/95 244/41/95 243/42/95
f 243/42/96 244/41/96 246/43/96 245/44/96
f 245/44/97 246/43/97 248/45/97 247/46/97
f 247/46/98 248/45/98 250/47/98 249/48/98
f 249/48/99 250/47/99 252/49/99 251/50/99
f 251/50/100 252/49/100 254/51/100 253/52/100
f 253/52/101 254/51/101 256/53/101 255/54/101
f 255/54/102 256/53/102 258/55/102 257/56/102
f 257/56/103 258/55/103 260/57/103 259/58/103
f 259/58/104 260/57/104 262/59/104 261/60/104
f 261/60/105 262/59/105 264/61/105 263/62/105
f 263/62/106 264/61/106 266/63/106 265/64/106
f 265/64/107 266/63/107 268/65/107 267/66/107
f 267/66/108 268/65/108 270/67/108 269/68/108
f 269/68/109 270/67/109 272/69/109 271/70/109
f 271/70/110 272/69/110 274/71/110 273/72/110
f 273/72/111 274/71/111 276/73/111 275/74/111
f 275/74/112 276/73/112 278/75/112 277/76/112
f 220/77/113 218/78/113 280/79/113 278/80/113 276/81/113 274/82/113 272/83/113 270/84/113 268/85/113 266/86/113 264/87/113 262/88/113 260/89/113 258/90/113 256/91/113 254/92/113 252/93/113 250/94/113 248/95/113 246/96/113 244/97/113 242/98/113 240/99/113 238/100/113 236/101/113 234/102/113 232/103/113 230/104/113 228/105/113 226/106/113 224/107/113 222/108/113
f 277/76/114 278/75/114 280/109/114 279/110/114
f 279/110/115 280/109/115 218/111/115 217/112/115
f 217/113/116 219/114/116 221/115/116 223/116/116 225/117/116 227/118/116 229/119/116 231/120/116 233/121/116 235/122/116 237/123/116 239/124/116 241/125/116 243/126/116 245/127/116 247/128/116 249/129/116 251/130/116 253/131/116 255/132/116 257/133/116 259/134/116 261/135/116 263/136/116 265/137/116 267/138/116 269/139/116 271/140/116 273/141/116 275/142/116 277/143/116 279/144/116
